<svg xmlns="http://www.w3.org/2000/svg" viewBox="0 0 512 512" width="512" height="512">
  <defs>
    <!-- Dark, sophisticated background -->
    <linearGradient id="bg" x1="0%" y1="0%" x2="0%" y2="100%">
      <stop offset="0%" stop-color="#2A2A35" />
      <stop offset="100%" stop-color="#181820" />
    </linearGradient>

    <!-- Subtle inner shadow/glow for the app icon base -->
    <linearGradient id="glass" x1="0%" y1="0%" x2="0%" y2="100%">
      <stop offset="0%" stop-color="#FFFFFF" stop-opacity="0.1" />
      <stop offset="100%" stop-color="#000000" stop-opacity="0.4" />
    </linearGradient>

    <!-- Drop shadow for the gem -->
    <filter id="shadow" x="-20%" y="-20%" width="140%" height="140%">
      <feDropShadow dx="0" dy="16" stdDeviation="24" flood-color="#000000" flood-opacity="0.4" />
    </filter>
    
    <!-- Text shadow to make it pop when overlapping the gem -->
    <filter id="textShadow" x="-20%" y="-20%" width="140%" height="140%">
      <feDropShadow dx="0" dy="8" stdDeviation="12" flood-color="#000000" flood-opacity="0.6" />
    </filter>
  </defs>

  <!-- Base Rounded Rectangle -->
  <rect x="32" y="32" width="448" height="448" rx="100" fill="url(#bg)" />
  <rect x="32" y="32" width="448" height="448" rx="100" fill="none" stroke="url(#glass)" stroke-width="2" />

  <!-- The Ruby Gem returned to standard size (scale=1.0) -->
  <!-- Moved down significantly (Top=130) to fix the top-heavy center of gravity -->
  <g transform="translate(106, 130)" filter="url(#shadow)">
    <polygon points="0,80 80,0 150,80" fill="#FF4D6D" />
    <polygon points="80,0 150,0 150,80" fill="#FF758F" />
    <polygon points="150,0 220,0 150,80" fill="#FFB3C1" />
    <polygon points="220,0 300,80 150,80" fill="#FF4D6D" />
    <polygon points="0,80 150,260 150,80" fill="#C9184A" />
    <polygon points="300,80 150,260 150,80" fill="#A4133C" />
  </g>

  <!-- Text "Rubi" overlapping the lower edges of the gem -->
  <!-- This horizontal overlapping perfectly balances the wide top of the diamond -->
  <text x="256" y="360" font-family="Avenir, Montserrat, system-ui, -apple-system, sans-serif" font-weight="900" font-size="108" fill="#FFFFFF" text-anchor="middle" letter-spacing="-2" filter="url(#textShadow)">Ru<tspan fill="#FF758F">bi</tspan></text>
</svg>
